<svg version="1.1" id="Layer_1" xmlns="http://www.w3.org/2000/svg" xmlns:xlink="http://www.w3.org/1999/xlink" x="0px" y="0px"
	 width="100%" viewBox="0 0 1000 1000" enable-background="new 0 0 1000 1000" xml:space="preserve">
<path fill="#131313" opacity="1.000000" stroke="none" 
	d="
M534.000000,1001.000000 
	C356.000000,1001.000000 178.500000,1001.000000 1.000000,1001.000000 
	C1.000000,667.666687 1.000000,334.333344 1.000000,1.000000 
	C334.333344,1.000000 667.666687,1.000000 1001.000000,1.000000 
	C1001.000000,334.333344 1001.000000,667.666687 1001.000000,1001.000000 
	C845.500000,1001.000000 690.000000,1001.000000 534.000000,1001.000000 
M378.298737,466.081696 
	C372.591431,458.955292 365.265228,456.360596 357.634003,458.763031 
	C349.809601,461.226257 344.724518,467.885315 344.145905,476.786804 
	C343.633911,484.663300 345.631866,491.984009 349.657227,498.750214 
	C356.687256,510.566833 365.187683,521.116089 375.496674,530.320557 
	C390.702240,543.896973 407.919281,553.932983 427.616425,558.797485 
	C469.560242,569.156189 511.344788,568.733459 552.841064,555.554199 
	C582.002258,546.292603 609.112671,532.900635 634.036316,515.398926 
	C644.984619,507.710876 654.572632,498.032654 664.440369,488.893219 
	C667.146667,486.386627 669.091980,482.760803 670.587524,479.302979 
	C674.418030,470.446625 671.426575,460.981873 663.688843,456.010284 
	C655.724060,450.892822 646.100586,452.486298 639.268311,459.807373 
	C634.176392,465.263519 629.204041,470.915253 623.554626,475.751160 
	C607.873352,489.174438 589.958008,499.221436 571.345459,507.832550 
	C549.481445,517.947937 526.615417,525.351807 502.453491,527.202820 
	C490.716644,528.102051 478.814728,527.589233 467.029816,526.943665 
	C449.255981,525.969971 431.789948,522.899170 416.407745,513.284485 
	C399.992462,503.024078 384.845459,491.390656 380.591797,470.722321 
	C380.299042,469.299927 379.341614,468.014313 378.298737,466.081696 
M641.737793,350.443329 
	C644.690552,360.978027 653.230591,367.054260 662.766174,365.404938 
	C672.695129,363.687561 679.802673,354.447510 678.527710,344.914215 
	C677.201172,334.994446 668.179260,327.512360 658.600769,328.388367 
	C647.934753,329.363770 640.733643,338.377441 641.737793,350.443329 
M326.685242,337.512695 
	C325.496765,338.101196 324.242676,338.586670 323.130219,339.294647 
	C314.954193,344.497955 312.092712,354.779144 316.403198,363.302795 
	C320.652191,371.704865 330.450989,375.670349 339.198273,372.527771 
	C348.380829,369.228790 353.534363,359.335144 350.906158,350.051239 
	C348.033875,339.905090 338.444336,334.695984 326.685242,337.512695 
z"/>
<path fill="#FBFBFB" opacity="1.000000" stroke="none" 
	d="
M378.496033,466.373413 
	C379.341614,468.014313 380.299042,469.299927 380.591797,470.722321 
	C384.845459,491.390656 399.992462,503.024078 416.407745,513.284485 
	C431.789948,522.899170 449.255981,525.969971 467.029816,526.943665 
	C478.814728,527.589233 490.716644,528.102051 502.453491,527.202820 
	C526.615417,525.351807 549.481445,517.947937 571.345459,507.832550 
	C589.958008,499.221436 607.873352,489.174438 623.554626,475.751160 
	C629.204041,470.915253 634.176392,465.263519 639.268311,459.807373 
	C646.100586,452.486298 655.724060,450.892822 663.688843,456.010284 
	C671.426575,460.981873 674.418030,470.446625 670.587524,479.302979 
	C669.091980,482.760803 667.146667,486.386627 664.440369,488.893219 
	C654.572632,498.032654 644.984619,507.710876 634.036316,515.398926 
	C609.112671,532.900635 582.002258,546.292603 552.841064,555.554199 
	C511.344788,568.733459 469.560242,569.156189 427.616425,558.797485 
	C407.919281,553.932983 390.702240,543.896973 375.496674,530.320557 
	C365.187683,521.116089 356.687256,510.566833 349.657227,498.750214 
	C345.631866,491.984009 343.633911,484.663300 344.145905,476.786804 
	C344.724518,467.885315 349.809601,461.226257 357.634003,458.763031 
	C365.265228,456.360596 372.591431,458.955292 378.496033,466.373413 
z"/>
<path fill="#FBFBFB" opacity="1.000000" stroke="none" 
	d="
M641.659302,350.067871 
	C640.733643,338.377441 647.934753,329.363770 658.600769,328.388367 
	C668.179260,327.512360 677.201172,334.994446 678.527710,344.914215 
	C679.802673,354.447510 672.695129,363.687561 662.766174,365.404938 
	C653.230591,367.054260 644.690552,360.978027 641.659302,350.067871 
z"/>
<path fill="#FBFBFB" opacity="1.000000" stroke="none" 
	d="
M327.038361,337.395264 
	C338.444336,334.695984 348.033875,339.905090 350.906158,350.051239 
	C353.534363,359.335144 348.380829,369.228790 339.198273,372.527771 
	C330.450989,375.670349 320.652191,371.704865 316.403198,363.302795 
	C312.092712,354.779144 314.954193,344.497955 323.130219,339.294647 
	C324.242676,338.586670 325.496765,338.101196 327.038361,337.395264 
z"/>
</svg>